<?xml version="1.0" encoding="utf-8"?>
<svg xmlns="http://www.w3.org/2000/svg"
	xmlns:xlink="http://www.w3.org/1999/xlink"
	width="77px" height="81px" viewBox="0 0 77 81">
<path fillRule="evenodd" d="M 74.64 72.61C 74.64 72.61 74.64 78.3 74.64 78.3 74.64 78.3 73.77 78.3 73.77 78.3 73.77 78.3 73.77 72.61 73.77 72.61 73.77 72.61 71.42 72.61 71.42 72.61 71.42 72.61 71.42 71.84 71.42 71.84 71.42 71.84 77 71.84 77 71.84 77 71.84 77 72.61 77 72.61 77 72.61 74.64 72.61 74.64 72.61ZM 65.76 81C 65.1 81 64.62 80.61 64.62 80.61 64.62 80.61 64.95 79.92 64.95 79.92 64.95 79.92 65.31 80.22 65.72 80.22 66.29 80.22 66.7 79.75 66.95 79.16 66.95 79.16 67.34 78.24 67.34 78.24 67.34 78.24 64.66 71.84 64.66 71.84 64.66 71.84 65.62 71.84 65.62 71.84 65.62 71.84 67.51 76.56 67.51 76.56 67.63 76.88 67.75 77.24 67.75 77.24 67.75 77.24 67.77 77.24 67.77 77.24 67.77 77.24 67.86 76.88 67.99 76.56 67.99 76.56 69.85 71.84 69.85 71.84 69.85 71.84 70.79 71.84 70.79 71.84 70.79 71.84 67.61 79.65 67.61 79.65 67.27 80.47 66.62 81 65.76 81ZM 67.82 47.99C 67.48 47.99 66.73 47.81 66.47 47.72 66.22 47.62 65.83 47.42 65.83 47.42 65.83 47.42 66.26 48.29 66.48 48.56 66.7 48.84 67.11 49.49 66.87 50.25 66.63 51.02 66.22 51.52 65.96 52.56 65.7 53.59 65.39 55.13 65.25 55.74 65.12 56.35 64.45 57.07 63.72 57.14 62.98 57.21 61.89 57.2 61.58 56.72 61.26 56.24 61.19 55.77 61.45 55.09 61.7 54.42 63.18 51.25 63.18 51.25 63.18 51.25 62.81 50.61 62.48 50.47 62.15 50.33 61.32 49.98 61.07 49.67 60.82 49.35 60.63 49.05 60.63 49.05 60.63 49.05 60.07 49.07 60.07 49.07 60.07 49.07 60.13 49.98 59.82 50.43 59.51 50.89 59.28 51.17 57.91 51.36 56.53 51.55 56.24 51.71 55.83 52.1 55.41 52.49 54.6 52.66 54.08 52.62 53.59 52.58 52.77 52.21 52.51 51.8 52.14 52.38 51.88 52.7 51.88 52.7 51.88 52.7 52.6 53.9 52.75 54.16 52.9 54.42 52.73 55.44 51.76 55.46 50.79 55.48 49.17 55.48 49.17 55.48 49.17 55.48 49.26 56.67 48.52 57.24 47.77 57.81 45.46 59.62 38.35 59.62 31.25 59.62 29 56.99 28.88 56.4 28.76 55.81 28.75 55.52 28.75 55.52 28.75 55.52 26.76 55.52 26.05 55.52 25.34 55.52 24.93 54.52 25.25 53.95 25.56 53.38 26.01 52.66 26.01 52.66 26.01 52.66 25.29 51.71 25.09 51.41 25 51.28 24.94 51.08 24.94 50.89 24.25 50.88 23.18 50.87 22.36 50.84 21.06 50.8 20.76 50.07 20.65 49.55 20.54 49.03 20.68 47.58 20.68 47.58 20.68 47.58 19.99 47.58 19.99 47.58 19.99 47.58 19.91 48.58 19.79 49.11 19.68 49.63 19.16 50.12 18.64 50.4 18.13 50.69 16.67 51.63 16.38 51.85 16.1 52.08 16.17 52.33 16.39 52.74 16.61 53.16 17.32 53.5 17.86 53.89 18.41 54.28 18.74 54.97 18.63 55.63 18.52 56.29 17.93 56.72 17.46 56.76 16.99 56.79 15.92 56.87 15.06 56.87 14.19 56.87 13.51 56.34 13.13 55.92 12.76 55.49 12.07 53.36 11.9 52.59 11.74 51.82 11.96 51.32 12.16 51.06 12.35 50.8 13.37 49.44 13.62 49.08 13.87 48.73 13.62 48.22 13.38 47.76 13.14 47.31 13 46.68 13 46.68 13 46.68 12.66 46.74 12.28 46.81 11.91 46.88 10.98 47.01 10.26 46.94 8.31 46.75 7.06 45.28 6.29 43.91 5.51 42.54 5.49 40.26 5.9 38.46 6.31 36.65 8.52 35.23 10.23 35.13 11.93 35.03 13.24 36.22 13.75 37.44 14.25 38.65 13.47 40.16 12.77 40.74 12.08 41.32 11.04 41.57 10.51 41.25 9.99 40.94 10.12 40.14 10.23 39.65 10.35 39.16 10.26 38.6 10.07 38.34 9.88 38.08 9.31 38.28 8.97 38.48 8.64 38.67 8.11 39.32 8.1 40.71 8.1 42.1 8.56 42.56 9.34 43.23 10.11 43.9 11.62 43.72 12.59 43.29 13.55 42.85 15.02 40.62 15.5 39.69 15.98 38.76 15.72 37.46 15.72 37.46 15.72 37.46 15.66 37.5 15.35 37.57 15.04 37.65 14.64 37.5 14.45 37.31 14.27 37.12 13.17 36.02 12.43 33.75 11.69 31.48 11.69 30.46 12.14 28.48 12.58 26.5 14.22 25.66 14.22 25.66 14.22 25.66 14.21 24.65 15.44 24.34 16.66 24.03 17.36 25.03 17.36 25.03 17.36 25.03 18.21 25.22 18.85 25.34 18.54 24.35 18.37 23.25 18.37 23.25 18.37 23.25 17.12 22.76 16.28 21.29 15.43 19.82 13.9 16.73 17.12 12.63 20.34 8.52 25.4 8.63 25.4 8.63 25.4 8.63 25.61 9.09 25.15 7.4 24.69 5.71 25.03 2.88 27.87 1.01 28.89 0.34 30.14-0.09 32.14 0.02 34.15 0.12 35.23 2.26 35.23 2.26 35.23 2.26 36.24 1.45 37.28 1.25 38.32 1.04 39.51 1.68 39.51 1.68 39.51 1.68 40.26 1.03 42.17 1.12 44.82 1.24 44.91 4.13 44.91 4.13 44.91 4.13 45.45 3.52 46.36 2.78 47.27 2.05 52.19 0.09 56.56 3.28 62.02 7.27 59.98 13.16 59.98 13.16 59.98 13.16 62.25 12.76 62.77 14.38 63.3 16.01 61.67 16.76 61.67 16.76 61.67 16.76 63.41 17.96 63.2 20.6 62.98 23.24 60.58 23.56 60.58 23.56 60.58 23.56 60.63 23.22 60.23 24.99 60.05 25.79 59.28 26.55 58.5 27.13 58.67 27.21 58.74 27.25 58.47 27.15 58.47 27.15 58.47 27.15 58.47 27.15 58.96 27.39 60.5 28.26 61.19 29.95 62.12 32.26 61.74 32.91 61.43 34.83 61.12 36.76 61.21 37.71 62.49 39.07 62.77 39.37 65.03 41.14 65.03 41.14 65.03 41.14 63.62 38.94 64.06 37.07 64.24 36.3 64.55 34.87 65.63 34.29 66.71 33.72 67.32 33.92 67.58 34.14 67.84 34.37 68.04 35.01 67.71 35.56 67.38 36.1 66.71 36.88 66.88 37.83 67.05 38.79 67.65 39.65 68.26 40.35 68.87 41.05 70.57 42.7 70.51 45.18 70.45 47.67 68.16 48 67.82 47.99ZM 53.73 51.46C 54.23 51.74 54.93 51.62 55.13 51.33 55.32 51.04 56.12 50.52 57.18 50.4 58.23 50.28 59.02 50.29 59.05 49.64 59.07 48.98 59.01 48.02 59.69 48.02 60.37 48.02 60.86 48.03 60.86 48.03 60.86 48.03 60.86 44.76 60.86 44.76 60.86 44.76 59.63 44.72 58.93 44.22 58.93 44.22 57.86 44.86 57.27 45.26 56.67 45.66 56.83 46.62 57.15 47.26 57.46 47.9 57.89 49.26 57.06 49.35 56.23 49.43 54.57 49.84 53.87 50.46 53.18 51.09 53.24 51.19 53.73 51.46ZM 27.26 52.6C 27.26 52.6 26.14 54.45 26.14 54.45 26.14 54.45 28.12 54.45 28.68 54.45 29.23 54.45 29.77 54.98 29.77 54.98 29.77 54.98 29.77 54.28 29.77 54.28 29.78 55.07 29.8 55.79 29.8 55.97 29.82 56.84 32.71 58.39 38.33 58.56 38.43 58.57 38.52 58.57 38.62 58.57 38.72 58.57 38.81 58.57 38.91 58.57 38.93 58.57 38.95 58.57 38.97 58.57 38.97 58.57 38.98 58.57 38.98 58.57 38.98 58.57 38.98 58.57 38.98 58.57 39.01 58.57 39.03 58.57 39.05 58.57 39.15 58.57 39.24 58.57 39.34 58.57 39.43 58.57 39.53 58.57 39.62 58.56 45.24 58.39 48.14 56.84 48.16 55.97 48.16 55.85 48.17 55.46 48.18 54.96 48.28 54.87 48.75 54.45 49.24 54.45 49.8 54.45 51.78 54.45 51.78 54.45 51.78 54.45 50.66 52.6 50.66 52.6 50.66 52.6 51.97 50.92 51.97 50.92 51.97 50.92 49.88 50.92 49.15 50.92 48.42 50.92 48.15 51.31 48.15 51.31 48.15 51.31 48.15 52.24 48.15 52.24 47.7 53.24 45.4 55.17 38.98 55.17 32.38 55.17 30.14 53.13 29.77 52.17 29.77 52.17 29.77 51.31 29.77 51.31 29.77 51.31 29.5 50.92 28.77 50.92 28.04 50.92 25.95 50.92 25.95 50.92 25.95 50.92 27.26 52.6 27.26 52.6ZM 52.61 36.14C 52.73 35.55 53.2 34.92 53.2 34.92 53.2 34.92 52.64 34.6 52.26 34.29 51.89 33.97 50.97 32.75 50.8 32.25 50.62 31.75 49.68 31.09 49.01 30.86 48.34 30.63 47.12 30.48 47.12 30.48 47.12 30.48 47.27 31.41 47.49 31.77 47.7 32.13 48.16 32.18 48.83 32.25 49.5 32.33 50 32.89 50.46 34.01 50.91 35.13 52.51 36.83 52.51 36.83 52.51 36.83 52.48 36.73 52.61 36.14ZM 30.82 32.79C 30.61 33.19 29.92 33.36 29.83 33.38 29.82 34.22 29.81 35.39 29.8 37.04 29.9 37.29 29.97 37.63 29.99 38.07 30.02 38.83 29.89 39.62 29.8 40.06 29.8 40.22 29.8 40.4 29.8 40.57 29.8 51.15 39.06 53.58 39.23 53.62 39.23 53.62 39.23 53.63 39.23 53.63 39.23 53.63 39.23 53.63 39.23 53.63 39.23 53.63 39.23 53.63 39.23 53.63 39.23 53.63 39.23 53.62 39.23 53.62 39.37 53.59 46.41 51.74 48.23 44.29 48.22 44.23 48.21 44.17 48.21 44.11 48.14 43.4 48.03 42.45 48.12 41.84 48.2 41.27 48.43 40.2 48.66 39.69 48.65 36.51 48.64 34.53 48.62 33.3 48.32 33.21 47.92 33.13 47.64 33.06 47.67 33.96 47.7 36.02 47.7 40.7 47.7 50.2 39.37 52.39 39.23 52.42 39.23 52.42 39.23 52.42 39.23 52.42 39.23 52.42 39.23 52.42 39.23 52.42 39.23 52.42 39.23 52.42 39.23 52.42 39.23 52.42 39.23 52.42 39.23 52.42 39.08 52.39 30.76 50.2 30.76 40.7 30.76 35.46 30.79 33.5 30.82 32.79ZM 39.23 32.93C 39.23 32.93 39.23 32.93 39.23 32.93 39.23 32.93 31.39 32.93 31.39 32.93 31.39 32.93 31.28 31.62 31.28 40.77 31.28 43.35 31.91 45.36 32.81 46.93 32.81 46.93 46.82 32.93 46.82 32.93 46.82 32.93 39.23 32.93 39.23 32.93ZM 46.75 32.49C 46.6 32.31 46.48 32.09 46.39 31.83 46.34 31.71 46.31 31.57 46.27 31.43 46.27 31.43 39.23 31.43 39.23 31.43 39.23 31.43 39.23 31.43 39.23 31.43 39.23 31.43 31.25 31.43 31.25 31.43 31.15 31.78 31.04 32.19 30.94 32.49 30.94 32.49 39.23 32.49 39.23 32.49 39.23 32.49 39.23 32.49 39.23 32.49 39.23 32.49 46.75 32.49 46.75 32.49ZM 33.11 47.41C 35.43 50.96 39.13 51.95 39.23 51.98 39.23 51.98 39.23 51.98 39.23 51.98 39.23 51.98 39.23 51.98 39.23 51.98 39.23 51.98 39.23 51.98 39.23 51.98 39.23 51.98 39.23 51.98 39.23 51.98 39.36 51.94 47.17 49.85 47.17 40.77 47.17 36.19 47.15 34.23 47.12 33.42 47.12 33.42 33.11 47.41 33.11 47.41ZM 28.88 37.48C 28.71 37.25 28.27 36.94 27.75 37.71 27.22 38.48 27.06 38.49 26.57 38.51 26.07 38.53 24.78 38.32 24.78 38.32 24.78 38.32 24.46 39.2 24.12 39.71 23.77 40.21 23.25 40.8 23.25 40.8 23.25 40.8 26.61 40.8 27.34 40.8 28.07 40.8 28.59 40.48 28.78 39.94 28.97 39.4 29.05 37.7 28.88 37.48ZM 20.4 46.55C 20.89 46.55 21.79 46.66 21.71 47.39 21.63 48.12 21.59 48.92 21.59 49.24 21.59 49.56 21.69 49.85 22.93 49.85 24.18 49.85 26.3 49.85 26.79 49.85 27.28 49.85 27.52 48.67 27.33 48.33 27.15 47.98 26.72 47.68 25.95 47.91 25.18 48.15 24.66 48.21 24.14 48.14 23.61 48.06 23.36 47.4 23.71 46.74 24.06 46.07 24.65 44.38 24.01 43.65 23.37 42.92 22.13 42.63 21.06 42.87 20.94 42.9 19.82 43.77 19.71 44.66 19.59 45.55 19.55 46.55 19.55 46.55 19.55 46.55 19.9 46.55 20.4 46.55ZM 14.01 43.52C 14.01 43.52 14 43.54 14 43.56 13.16 44.32 11.23 44.99 9.92 44.63 8.58 44.27 7.36 43.06 7.15 41.73 6.94 40.39 7.16 38.96 7.72 38.28 8.29 37.6 9.45 36.93 10.1 37.2 10.74 37.46 11.22 38.01 11.25 38.5 11.28 38.98 11.35 39.3 11.22 39.68 11.08 40.06 11.08 40.48 11.08 40.48 11.08 40.48 11.9 40.28 12.4 39.65 12.9 39.03 13.19 38.18 12.51 37.27 11.82 36.35 10.7 35.9 9.29 36.33 7.88 36.77 6.27 38.4 6.59 41.29 6.91 44.19 8.49 45.38 9.64 45.81 10.65 46.18 12.6 45.96 13.88 45.15 13.87 45.34 13.87 45.54 13.87 45.74 13.87 47.02 14.84 48.07 14.75 48.83 14.66 49.58 13.63 50.9 13.18 51.35 12.72 51.81 12.82 52.39 12.92 52.74 13.03 53.1 13.5 54.47 13.77 54.99 14.03 55.52 14.35 55.83 14.83 55.83 15.31 55.83 16.57 55.84 17.25 55.78 17.93 55.73 17.6 54.99 17.34 54.76 17.09 54.53 16.2 54.13 15.73 53.59 15.26 53.05 14.99 52.6 15.22 51.78 15.45 50.96 17.28 50.05 18.11 49.55 18.94 49.06 18.93 48.61 18.93 47.97 18.93 47.32 19.03 45.08 19.34 44.01 19.66 42.95 21.31 42.19 22.8 40.59 24.29 39 24.57 37.93 24.57 37.93 24.57 37.93 24.4 37.81 24.16 37.91 23.92 38 23.25 38.13 23.12 37.93 22.99 37.74 23.21 37.72 24.36 37.12 25.51 36.51 26.4 35.6 27.26 34.27 27.96 33.17 28.74 32.69 29.16 32.53 29.57 32.36 30.03 32.36 30.03 32.29 30.02 32.21 29.68 31.95 29.72 31.91 29.86 31.77 30.14 31.57 30.14 31.55 30.14 31.5 29.82 31.09 29.82 31.09 29.82 31.09 30.24 30.91 30.24 30.91 30.24 30.91 30.25 30.68 29.69 30.43 29.12 30.18 27.79 30.34 26.7 31.25 25.89 31.93 24.66 33.9 24.16 34.44 23.67 34.99 22.16 34.84 20.01 35 17.85 35.16 16.5 36.6 16.5 36.6 16.5 36.6 17.19 38.14 16.62 39.63 16.05 41.11 14.01 43.52 14.01 43.52ZM 28.33 24.83C 27.67 23.9 27.44 23.89 26.81 24.31 26 24.87 27.54 26.29 29.8 26.58 30.06 26.61 28.99 25.76 28.33 24.83ZM 23.26 22.2C 23.74 21.63 23.3 22.52 24.21 22.94 25.12 23.36 25.86 22.23 25.79 21.73 25.72 21.24 25.01 19.77 23.24 20.81 21.47 21.85 22.55 23.84 22.98 24.45 22.98 24.45 22.79 22.77 23.26 22.2ZM 17.96 26.16C 17.82 26.1 17.36 26.01 16.77 26.02 16.5 25.4 16.05 25.21 15.64 25.3 15.29 25.38 15.13 25.91 15.07 26.37 14.22 26.74 13.41 27.47 13.04 28.86 11.95 32.91 15.17 36.61 15.17 36.61 15.17 36.61 16.45 35.34 18.26 34.63 20.52 33.73 23.25 34.2 23.25 34.2 23.25 34.2 23.46 34.16 23.46 34.16 23.46 34.16 23.21 33.27 22.9 32.7 22.52 31.99 21.96 31.66 21.71 31.53 21.46 31.41 21.21 31.24 21.34 30.89 21.47 30.54 22.45 30.61 22.45 30.61 22.45 30.61 22.29 29.84 22.29 29.84 22.29 29.84 22.1 29.95 21.71 30.04 21.31 30.13 20.23 29.94 20.46 29.13 20.68 28.31 22.4 28.57 22.53 28.55 22.66 28.53 22.62 27.93 22.6 27.74 22.58 27.54 22.74 26.89 22.6 26.89 22 26.89 18.39 26.33 17.96 26.16ZM 29.89 5.58C 30.3 5.3 30.58 4.27 29.92 3.87 29.27 3.48 28.5 3.96 28.09 4.76 27.68 5.56 27.57 6.08 27.57 6.08 27.57 6.08 27.24 4.67 27.89 3.93 28.54 3.2 29.37 2.15 30.89 2.31 32.4 2.47 33.58 3.36 32.85 4.23 32.13 5.11 31.98 5.8 32.63 6.18 33.27 6.56 34.32 5.2 34.37 4.17 34.42 3.14 34.23 1.45 32.16 1.11 30.08 0.78 28.11 1.3 26.97 2.67 25.83 4.04 25.7 6.37 26.16 7.73 26.61 9.08 27.37 9.58 28.57 10.65 28.57 10.65 25.44 8.41 21.15 10.54 16.86 12.66 15.9 16.79 16.12 18.6 16.35 20.4 17.45 21.28 17.87 21.47 18.3 21.67 18.91 21.17 18.96 20.67 19.01 20.16 18.75 18.88 18.4 18.25 18.05 17.61 18.35 16.32 19.46 15.34 20.57 14.37 21.95 13.39 23.39 13.03 24.83 12.68 21.68 13.35 20.37 15.02 19.07 16.68 19.52 17.9 19.65 18.39 19.77 18.88 20.7 19.33 21.19 18.95 21.69 18.57 21.65 17.98 21.5 17.36 21.35 16.75 21.69 15.62 22.32 15.1 22.95 14.57 24.99 13.79 24.99 13.79 24.99 13.79 23.26 14.81 23.13 15.82 23 16.83 23.47 17.34 23.86 17.3 24.24 17.26 24.67 16.5 24.66 15.92 24.65 15.34 25.32 14.39 26.61 13.88 27.91 13.36 29.73 13.36 30.93 13.52 31.13 13.55 29.14 13.55 28.06 14.58 26.99 15.61 27.11 16.35 27.4 16.63 27.69 16.91 28.67 16.29 28.91 15.55 29.16 14.81 30.55 13.97 31.41 14.36 32.26 14.75 32.95 15.29 32.66 15.61 32.37 15.94 31.86 16.01 31.66 15.76 31.45 15.5 30.66 15.55 30.63 15.97 30.6 16.4 31.14 16.75 32.12 16.8 33.11 16.85 34.19 17.05 34.68 17.85 35.17 18.65 35.68 20.43 35.6 21.98 35.51 23.53 35.31 24.27 35.31 24.27 35.31 24.27 33.7 24.2 31.83 23.25 29.96 22.31 29.3 21.79 29.1 21.58 28.9 21.36 28.06 21.67 28.75 22.47 29.45 23.27 30.98 24.34 32.33 25.03 33.67 25.71 34.92 25.81 35.12 26.65 35.32 27.48 35.25 29.48 35.25 29.92 35.25 30.36 35.54 30.39 35.99 30.45 36.44 30.51 36.53 30.36 36.68 29.55 36.82 28.73 36.99 23.44 36.99 23.44 36.99 23.44 37.43 28.75 37.65 29.46 37.86 30.18 38.24 30.47 38.55 30.19 38.86 29.9 38.95 27.77 38.95 27.77 38.95 27.77 39.37 29.67 39.54 30.01 39.71 30.34 40.5 30.91 40.69 30.99 40.87 31.06 43.97 31.65 43.94 31.07 43.9 30.49 43.87 27.99 44.11 27.28 44.34 26.56 45.13 24.85 46.17 24.36 47.21 23.88 48.41 23.29 49.86 23.13 51.31 22.98 51.86 22.62 52.2 22.23 52.54 21.85 52 21.27 51.46 21.56 50.92 21.85 50.11 22.1 48.75 22.2 47.38 22.31 45.22 22.75 43.86 23.57 42.51 24.38 42.03 25.64 42.03 25.64 42.03 25.64 40.37 23.24 40.6 21.04 40.83 18.85 42.09 16.09 42.62 15.22 43.15 14.36 42.52 14.02 41.56 14.92 40.6 15.82 38.9 18.27 38.61 20.64 38.54 21.2 38.5 21.56 38.47 21.79 38.31 21.4 37.41 19.2 36.85 18.17 36.24 17.03 36.25 15.47 36.69 14.89 37.13 14.32 37.4 12.88 36.47 13.52 35.54 14.17 35.18 15.05 35.18 15.05 35.18 15.05 32.81 12.13 31.49 11.16 30.17 10.19 29.22 8.86 29.11 7.76 29 6.65 29.48 5.85 29.89 5.58ZM 30.1 18.82C 30.04 19.72 30.67 19.73 31.71 19.7 32.75 19.67 33.72 20.51 33.72 20.51 33.63 20.22 33.16 19.06 32.46 18.47 31.75 17.88 30.15 17.91 30.1 18.82ZM 34.68 10.09C 34.68 11.23 34.92 11.69 34.92 11.69 34.92 11.69 35.28 10.12 36.54 9.53 37.8 8.95 37.44 7.61 36.46 7.74 35.49 7.87 34.67 8.96 34.68 10.09ZM 41.21 2.19C 40.11 2.77 39.57 3.96 39.57 3.96 39.57 3.96 38.9 2.49 38.03 2.47 37.16 2.46 36.02 2.83 35.96 3.5 35.91 4.18 36.49 4.74 37.09 4.6 37.7 4.47 38.71 4.75 38.98 5.71 39.24 6.68 39.58 8.85 39.58 8.85 39.58 8.85 39.82 4.72 41.08 4.12 42.35 3.52 42.71 4.07 43.23 3.36 43.75 2.66 42.3 1.62 41.21 2.19ZM 45.23 8.5C 43.11 7.09 41.96 8.6 41.78 8.92 41.61 9.24 41.28 10.43 42.18 10.5 43.07 10.57 43.93 10.26 43.9 9.68 43.87 9.11 44.91 10.21 45.1 11 45.29 11.78 45.58 12.62 45.51 13.15 45.51 13.15 47.35 9.91 45.23 8.5ZM 58.55 7.33C 57.61 4.68 54.75 3.1 51.59 2.81 48.42 2.52 46.92 4.1 46.37 5.03 45.83 5.96 46.67 6.56 47.25 6.23 47.83 5.91 47.66 4.47 49.34 3.96 51.02 3.45 52.66 4.2 52.66 4.2 52.66 4.2 51.53 4.25 50.82 4.39 50.1 4.52 48.67 5.32 48.24 6.38 47.81 7.43 47.72 8.95 49.2 9.59 50.69 10.23 51.29 8.32 51.99 7.67 52.68 7.03 53.57 7.19 54.45 7.89 55.33 8.58 54.91 9.99 54.04 10.47 53.17 10.96 49.83 12.63 47.89 15.07 45.94 17.5 44.56 21.52 44.56 21.52 46.79 18.23 48.9 16.83 51.28 15.99 53.66 15.14 55.84 14.95 57.75 13.25 59.02 12.11 59.48 9.98 58.55 7.33ZM 58.75 21.16C 59.77 22.43 60.71 22.59 61.29 22.23 61.86 21.88 61.67 21.04 61.08 20.32 60.04 19.05 57.03 18.55 57.47 18.56 59.26 18.61 60.91 19.48 61.4 19.84 61.88 20.2 62.15 19.93 62.06 19.25 61.97 18.57 60.42 17.34 57.78 17.11 55.13 16.89 51.52 19.74 51.52 19.74 54.93 18.65 57.73 19.88 58.75 21.16ZM 54.77 23.51C 54.77 23.51 56.07 24.69 57.46 24.51 58.12 24.42 58.73 23.59 58.05 23.03 57.37 22.46 56.36 22.91 55.69 23.24 55.01 23.57 56.02 23.33 54.77 23.51ZM 67.55 41.03C 66.51 39.98 65.81 38.68 65.84 37.35 65.86 36.03 67.24 34.78 66.83 34.9 66.41 35.02 65.22 35.34 64.99 37.66 64.76 39.99 67.1 41.94 67.95 42.88 68.95 43.98 69 46.01 67.72 45.98 66.4 45.94 65.96 44.6 65.46 43.5 65.22 42.86 64.82 42.21 64.18 41.74 62.31 40.36 60.29 39.06 60.27 36.41 60.24 33.75 61.51 32.76 60.14 30.16 59.06 28.12 57.62 27.81 56.55 27.8 56.42 27.79 56.19 27.74 55.89 27.64 55.89 27.64 54.79 26.22 54.79 26.22 54.79 26.22 54.53 27.13 54.53 27.13 52.15 26.16 48.64 24.46 48.64 24.46 48.64 24.46 53.77 28.89 53.77 28.89 53.77 28.89 53.5 31.14 53.47 32.02 53.44 32.91 53.58 33.05 53.94 33.13 54.31 33.2 54.86 33.06 55.24 32.67 55.62 32.27 56.57 31.61 56.57 31.61 56.57 31.61 56.89 32.47 56.44 33.15 55.99 33.83 53.56 34.55 53.2 36.39 53.07 37.05 53.02 37.66 53.09 38.23 52.37 38.39 51.09 38.26 50.75 38.23 50.29 38.2 50.18 38.73 49.78 39.65 49.37 40.57 49.08 41.87 49.11 42.35 49.13 42.83 49.29 44.73 49.29 44.73 49.29 44.73 49.88 44.53 50.3 43.92 50.72 43.31 50.41 42.66 50.39 41.82 50.37 40.97 50.6 40.48 51.38 40.1 52.08 39.76 53.84 40.62 54.88 41.16 54.9 41.18 54.92 41.19 54.94 41.21 56.77 42.78 58.71 43.68 59.89 43.93 60.65 44.1 60.78 44.13 60.77 44.13 60.77 44.13 61.41 44.21 61.41 44.21 61.41 44.21 61.41 46.39 61.41 47.74 61.41 49.09 62.18 49.16 62.79 49.48 63.41 49.8 64.13 50.63 64.2 51.15 64.27 51.68 62.68 54.89 62.43 55.4 62.19 55.91 62.27 56.14 62.7 56.14 63.13 56.14 63.38 56.14 63.56 56.14 63.73 56.14 64.21 56.05 64.42 54.94 64.62 53.83 65.09 51.8 65.37 51.15 65.65 50.5 66.26 49.84 65.72 49.22 65.18 48.6 64.44 47.35 64.98 46.42 65.21 46.04 65.52 45.97 65.7 45.97 66.14 46.42 66.74 46.86 67.59 46.97 68.67 47.11 69.38 46.29 69.51 45.03 69.62 43.89 68.79 42.28 67.55 41.03ZM 66.14 42.5C 66.14 42.5 66.6 43.39 66.69 43.7 66.78 44 67.13 44.58 67.37 44.79 67.62 44.99 67.65 44.85 67.67 44.74 67.69 44.63 67.62 44.23 67.41 43.91 67.2 43.58 66.14 42.5 66.14 42.5ZM 55.64 30.03C 55.38 30.03 55.17 29.82 55.17 29.57 55.17 29.31 55.38 29.11 55.64 29.11 55.89 29.11 56.1 29.31 56.1 29.57 56.1 29.82 55.89 30.03 55.64 30.03ZM 53.03 12.99C 53.03 12.99 55.39 11.96 56.13 11.07 56.73 10.34 57 8.79 56.88 7.94 57.19 8.74 57.63 10.29 56.75 11.16 55.41 12.49 53.32 12.89 53.03 12.99ZM 56.73 7.48C 56.81 7.58 56.85 7.74 56.88 7.94 56.72 7.51 56.6 7.29 56.73 7.48ZM 24.41 11.35C 23.3 11.49 22.83 11.44 22.22 11.58 22.22 11.58 23.75 10.77 25.13 10.86 26.51 10.95 27.36 11.31 27.36 11.31 27.36 11.31 25.52 11.22 24.41 11.35ZM 38.47 21.79C 38.49 21.83 38.5 21.85 38.5 21.85 38.5 21.85 38.4 22.53 38.47 21.79ZM 19.19 28.25C 18.94 28.25 18.74 28.05 18.74 27.8 18.74 27.54 18.94 27.34 19.19 27.34 19.44 27.34 19.65 27.54 19.65 27.8 19.65 28.05 19.44 28.25 19.19 28.25ZM 44.1 43.71C 43.87 43.52 43.97 42.86 44.18 42.53 44.4 42.2 44.54 41.58 44.33 41.11 44.11 40.6 43.81 40.25 44.19 39.9 44.31 39.79 45.02 39.82 45.42 40.69 45.81 41.55 45.6 42.49 45.38 42.93 44.99 43.73 44.34 43.91 44.1 43.71ZM 41.7 46.39C 41.47 46.2 41.57 45.54 41.78 45.21 42.01 44.88 42.14 44.26 41.94 43.79 41.71 43.28 41.42 42.93 41.8 42.58 41.92 42.47 42.62 42.5 43.02 43.36 43.41 44.23 43.2 45.17 42.99 45.61 42.59 46.41 41.95 46.59 41.7 46.39ZM 38.72 48.86C 38.48 48.67 38.58 48.01 38.8 47.68 39.02 47.35 39.16 46.73 38.95 46.26 38.72 45.75 38.43 45.4 38.81 45.05 38.93 44.94 39.63 44.97 40.03 45.83 40.43 46.7 40.21 47.64 40 48.08 39.6 48.88 38.96 49.06 38.72 48.86ZM 39.56 37.8C 39.56 37.8 39.56 35.77 39.56 35.77 39.56 35.77 38.77 37.8 38.77 37.8 38.77 37.8 38.41 37.8 38.41 37.8 38.41 37.8 37.63 35.77 37.63 35.77 37.63 35.77 37.63 37.8 37.63 37.8 37.63 37.8 36.82 37.8 36.82 37.8 36.82 37.8 36.82 34.67 36.82 34.67 36.82 34.67 37.94 34.67 37.94 34.67 37.94 34.67 38.59 36.37 38.59 36.37 38.59 36.37 39.25 34.67 39.25 34.67 39.25 34.67 40.37 34.67 40.37 34.67 40.37 34.67 40.37 37.8 40.37 37.8 40.37 37.8 39.56 37.8 39.56 37.8ZM 34.62 38.98C 35.31 38.98 35.68 39.44 35.68 39.99 35.68 40.54 35.31 41 34.62 41 34.62 41 33.03 41 33.03 41 33.03 41 33.03 37.87 33.03 37.87 33.03 37.87 35.47 37.87 35.47 37.87 35.47 37.87 35.47 38.58 35.47 38.58 35.47 38.58 33.83 38.58 33.83 38.58 33.83 38.58 33.83 38.98 33.83 38.98 33.83 38.98 34.62 38.98 34.62 38.98ZM 33.83 40.3C 33.83 40.3 34.52 40.3 34.52 40.3 34.71 40.3 34.86 40.19 34.86 39.99 34.86 39.8 34.71 39.68 34.52 39.68 34.52 39.68 33.83 39.68 33.83 39.68 33.83 39.68 33.83 40.3 33.83 40.3ZM 32.81 55.63C 32.81 55.63 33.05 55.15 33.05 55.15 33.05 55.15 33.28 55.63 33.28 55.63 33.28 55.63 33.81 55.71 33.81 55.71 33.81 55.71 33.43 56.08 33.43 56.08 33.43 56.08 33.52 56.61 33.52 56.61 33.52 56.61 33.05 56.36 33.05 56.36 33.05 56.36 32.57 56.61 32.57 56.61 32.57 56.61 32.66 56.08 32.66 56.08 32.66 56.08 32.28 55.71 32.28 55.71 32.28 55.71 32.81 55.63 32.81 55.63ZM 36.77 56.36C 36.77 56.36 37.01 55.88 37.01 55.88 37.01 55.88 37.24 56.36 37.24 56.36 37.24 56.36 37.77 56.44 37.77 56.44 37.77 56.44 37.39 56.81 37.39 56.81 37.39 56.81 37.48 57.34 37.48 57.34 37.48 57.34 37.01 57.09 37.01 57.09 37.01 57.09 36.53 57.34 36.53 57.34 36.53 57.34 36.63 56.81 36.63 56.81 36.63 56.81 36.24 56.44 36.24 56.44 36.24 56.44 36.77 56.36 36.77 56.36ZM 41.18 56.26C 41.18 56.26 41.42 55.78 41.42 55.78 41.42 55.78 41.66 56.26 41.66 56.26 41.66 56.26 42.18 56.33 42.18 56.33 42.18 56.33 41.8 56.71 41.8 56.71 41.8 56.71 41.89 57.23 41.89 57.23 41.89 57.23 41.42 56.98 41.42 56.98 41.42 56.98 40.95 57.23 40.95 57.23 40.95 57.23 41.04 56.71 41.04 56.71 41.04 56.71 40.66 56.33 40.66 56.33 40.66 56.33 41.18 56.26 41.18 56.26ZM 45.07 55.39C 45.07 55.39 45.31 54.91 45.31 54.91 45.31 54.91 45.55 55.39 45.55 55.39 45.55 55.39 46.07 55.46 46.07 55.46 46.07 55.46 45.69 55.84 45.69 55.84 45.69 55.84 45.78 56.36 45.78 56.36 45.78 56.36 45.31 56.11 45.31 56.11 45.31 56.11 44.84 56.36 44.84 56.36 44.84 56.36 44.93 55.84 44.93 55.84 44.93 55.84 44.55 55.46 44.55 55.46 44.55 55.46 45.07 55.39 45.07 55.39ZM 0.89 73.02C 0.89 73.02 3.04 73.02 3.04 73.02 4.55 73.02 5.71 73.92 5.71 75.68 5.71 77.28 4.62 78.3 3.12 78.3 3.12 78.3 0 78.3 0 78.3 0 78.3 0 69.28 0 69.28 0 69.28 5.1 69.28 5.1 69.28 5.1 69.28 5.1 70.07 5.1 70.07 5.1 70.07 0.89 70.07 0.89 70.07 0.89 70.07 0.89 73.02 0.89 73.02ZM 0.89 77.51C 0.89 77.51 2.99 77.51 2.99 77.51 4.1 77.51 4.8 76.83 4.8 75.68 4.8 74.53 4.05 73.82 2.98 73.82 2.98 73.82 0.89 73.82 0.89 73.82 0.89 73.82 0.89 77.51 0.89 77.51ZM 8.9 69.28C 8.9 69.28 11.28 74.58 11.28 74.58 11.48 75.04 11.71 75.68 11.71 75.68 11.71 75.68 11.74 75.68 11.74 75.68 11.74 75.68 11.97 75.04 12.17 74.58 12.17 74.58 14.55 69.28 14.55 69.28 14.55 69.28 15.46 69.28 15.46 69.28 15.46 69.28 16.18 78.3 16.18 78.3 16.18 78.3 15.29 78.3 15.29 78.3 15.29 78.3 14.79 71.99 14.79 71.99 14.75 71.5 14.77 70.73 14.77 70.73 14.77 70.73 14.74 70.73 14.74 70.73 14.74 70.73 14.47 71.52 14.26 71.99 14.26 71.99 12.14 76.62 12.14 76.62 12.14 76.62 11.32 76.62 11.32 76.62 11.32 76.62 9.2 71.99 9.2 71.99 8.99 71.54 8.71 70.7 8.71 70.7 8.71 70.7 8.69 70.7 8.69 70.7 8.69 70.7 8.7 71.5 8.66 71.99 8.66 71.99 8.16 78.3 8.16 78.3 8.16 78.3 7.28 78.3 7.28 78.3 7.28 78.3 7.99 69.28 7.99 69.28 7.99 69.28 8.9 69.28 8.9 69.28ZM 22.52 75.77C 22.52 76.25 22.44 76.99 22.44 76.99 22.44 76.99 22.47 76.99 22.47 76.99 22.47 76.99 22.94 76.2 23.25 75.75 23.25 75.75 27.82 69.28 27.82 69.28 27.82 69.28 28.68 69.28 28.68 69.28 28.68 69.28 28.68 78.3 28.68 78.3 28.68 78.3 27.79 78.3 27.79 78.3 27.79 78.3 27.79 71.81 27.79 71.81 27.79 71.33 27.87 70.59 27.87 70.59 27.87 70.59 27.84 70.59 27.84 70.59 27.84 70.59 27.39 71.36 27.08 71.81 27.08 71.81 22.49 78.3 22.49 78.3 22.49 78.3 21.63 78.3 21.63 78.3 21.63 78.3 21.63 69.28 21.63 69.28 21.63 69.28 22.52 69.28 22.52 69.28 22.52 69.28 22.52 75.77 22.52 75.77ZM 31.81 74.6C 31.81 74.6 35.58 74.6 35.58 74.6 35.58 74.6 35.58 71.84 35.58 71.84 35.58 71.84 36.45 71.84 36.45 71.84 36.45 71.84 36.45 78.3 36.45 78.3 36.45 78.3 35.58 78.3 35.58 78.3 35.58 78.3 35.58 75.38 35.58 75.38 35.58 75.38 31.81 75.38 31.81 75.38 31.81 75.38 31.81 78.3 31.81 78.3 31.81 78.3 30.94 78.3 30.94 78.3 30.94 78.3 30.94 71.84 30.94 71.84 30.94 71.84 31.81 71.84 31.81 71.84 31.81 71.84 31.81 74.6 31.81 74.6ZM 41.48 71.69C 42.33 71.69 43.27 71.99 43.84 72.61 43.84 72.61 43.39 73.27 43.39 73.27 42.95 72.81 42.23 72.47 41.51 72.47 40.1 72.47 39 73.54 39 75.08 39 76.6 40.1 77.66 41.54 77.66 42.28 77.66 43.09 77.34 43.6 76.78 43.6 76.78 44 77.43 44 77.43 43.43 78.06 42.47 78.46 41.48 78.46 39.57 78.46 38.1 77.08 38.1 75.08 38.1 73.09 39.59 71.69 41.48 71.69ZM 50.32 72.61C 50.32 72.61 47.96 72.61 47.96 72.61 47.96 72.61 47.96 78.3 47.96 78.3 47.96 78.3 47.09 78.3 47.09 78.3 47.09 78.3 47.09 72.61 47.09 72.61 47.09 72.61 44.75 72.61 44.75 72.61 44.75 72.61 44.75 71.84 44.75 71.84 44.75 71.84 50.32 71.84 50.32 71.84 50.32 71.84 50.32 72.61 50.32 72.61ZM 52.51 76.08C 52.51 76.48 52.48 77.02 52.47 77.04 52.47 77.04 52.49 77.04 52.49 77.04 52.52 76.99 52.9 76.44 53.16 76.08 53.16 76.08 56.33 71.84 56.33 71.84 56.33 71.84 57.16 71.84 57.16 71.84 57.16 71.84 57.16 78.3 57.16 78.3 57.16 78.3 56.3 78.3 56.3 78.3 56.3 78.3 56.3 74.05 56.3 74.05 56.3 73.68 56.34 73.17 56.34 73.11 56.34 73.11 56.32 73.11 56.32 73.11 56.3 73.18 55.91 73.69 55.66 74.05 55.66 74.05 52.49 78.3 52.49 78.3 52.49 78.3 51.66 78.3 51.66 78.3 51.66 78.3 51.66 71.84 51.66 71.84 51.66 71.84 52.51 71.84 52.51 71.84 52.51 71.84 52.51 76.08 52.51 76.08ZM 64.08 72.61C 64.08 72.61 61.72 72.61 61.72 72.61 61.72 72.61 61.72 78.3 61.72 78.3 61.72 78.3 60.85 78.3 60.85 78.3 60.85 78.3 60.85 72.61 60.85 72.61 60.85 72.61 58.5 72.61 58.5 72.61 58.5 72.61 58.5 71.84 58.5 71.84 58.5 71.84 64.08 71.84 64.08 71.84 64.08 71.84 64.08 72.61 64.08 72.61Z" fill="rgb(255,255,255)"/></svg>